<?xml version="1.0" encoding="iso-8859-1"?>
<!-- Uploaded to: SVG Repo, www.svgrepo.com, Generator: SVG Repo Mixer Tools -->
<svg height="800px" width="800px" version="1.1" id="Layer_1" xmlns="http://www.w3.org/2000/svg" xmlns:xlink="http://www.w3.org/1999/xlink" 
	 viewBox="0 0 473.935 473.935" xml:space="preserve">
<circle style="fill:#E84849;" cx="236.967" cy="236.967" r="236.967"/>
<path style="fill:#4B4A4B;" d="M375.346,232.324c-62.383-64.812-127.251-62.155-130.394-61.979
	c-3.166-0.176-68.011-2.833-130.394,61.979c0.636-0.543-4.385,4.333-4.187,10.436l0,0c0,0,0,0,0,0.015
	c-0.198,6.088,4.823,10.956,4.187,10.421c62.383,64.808,127.228,62.147,130.394,61.979c3.143,0.168,68.011,2.829,130.394-61.979
	c-0.636,0.535,4.378-4.333,4.187-10.421c0-0.015,0-0.015,0-0.015l0,0C379.72,236.657,374.71,231.785,375.346,232.324z"/>
<path style="fill:#FFFFFF;" d="M362.512,233.349c-56.235-58.436-114.723-56.033-117.559-55.872
	c-2.859-0.161-61.324-2.563-117.567,55.872c0.576-0.49-3.948,3.918-3.772,9.414l0,0c0,0,0,0,0,0.015
	c-0.176,5.489,4.348,9.882,3.772,9.392c56.243,58.435,114.708,56.033,117.567,55.887c2.836,0.146,61.324,2.552,117.559-55.887
	c-0.569,0.49,3.955-3.903,3.772-9.392c0-0.015,0-0.015,0-0.015l0,0C366.463,237.267,361.939,232.859,362.512,233.349z"/>
<circle style="fill:#4B4A4B;" cx="246.06" cy="243.179" r="46.683"/>
<g>
	<path style="fill:#FFFFFF;" d="M284.159,223.074c0,10.829-8.771,19.614-19.607,19.614c-10.844,0-19.629-8.786-19.629-19.614
		c0-10.836,8.786-19.622,19.629-19.622C275.392,203.452,284.159,212.238,284.159,223.074z"/>
	<path style="fill:#FFFFFF;" d="M148.916,141.821h-23.839v-23.839c0-4.052-6.271-7.349-10.327-7.349
		c-4.049,0-10.443,3.297-10.443,7.349v23.839H80.475c-4.064,0-7.353,6.271-7.353,10.327c0,4.045,3.289,10.447,7.353,10.447h23.831
		v23.835c0,4.056,6.395,7.353,10.443,7.353c4.056,0,10.327-3.297,10.327-7.353v-23.835h23.839c4.056,0,7.345-6.402,7.345-10.447
		C156.261,148.092,152.972,141.821,148.916,141.821z"/>
	<path style="fill:#FFFFFF;" d="M114.749,195.654c-4.958,0-12.314-3.873-12.314-9.224v-21.964H80.475
		c-5.351,0-9.224-7.356-9.224-12.318c0-4.913,3.873-12.198,9.224-12.198h21.961v-21.968c0-5.351,7.356-9.22,12.314-9.22
		c4.913,0,12.198,3.869,12.198,9.22v21.968h21.968c5.347,0,9.216,7.285,9.216,12.198c0,4.962-3.869,12.318-9.216,12.318h-21.968
		v21.964C126.948,191.782,119.659,195.654,114.749,195.654z M80.475,143.692c-2.593,0-5.482,5.044-5.482,8.456
		c0,3.465,2.885,8.576,5.482,8.576h25.702v25.706c0,2.593,5.108,5.482,8.572,5.482c3.416,0,8.456-2.885,8.456-5.482v-25.706h25.71
		c2.589,0,5.474-5.111,5.474-8.576c0-3.413-2.885-8.456-5.474-8.456h-25.71v-25.71c0-2.593-5.04-5.478-8.456-5.478
		c-3.465,0-8.572,2.885-8.572,5.478v25.71H80.475z"/>
</g>
<g style="opacity:0.15;">
	<path style="fill:#FAF2F2;" d="M184.672,243.194c0-33.889,27.472-61.369,61.365-61.369c22.428,0,25.235,122.734,0,122.734
		C212.144,304.559,184.672,277.087,184.672,243.194z"/>
</g>
</svg>